<?xml version="1.0" encoding="utf-8"?>
<!-- Generator: Adobe Illustrator 28.0.0, SVG Export Plug-In . SVG Version: 6.00 Build 0)  -->
<svg version="1.1" id="Слой_1" xmlns="http://www.w3.org/2000/svg" xmlns:xlink="http://www.w3.org/1999/xlink" x="0px" y="0px"
	 viewBox="0 0 1920 314.3" style="enable-background:new 0 0 1920 314.3;" xml:space="preserve">
<style type="text/css">
	.st0{fill:#FFFFFF;}
	.st1{fill:url(#SVGID_1_);}
	.st2{fill:url(#SVGID_00000117653979863572671910000007260443672563655614_);}
	.st3{fill:url(#SVGID_00000078007505299322605790000015690810221543447731_);}
	.st4{fill:url(#SVGID_00000044143373562366987500000001228049341650136234_);}
	.st5{fill:url(#SVGID_00000014595577119769086710000004022796992829104258_);}
	.st6{fill:url(#SVGID_00000056413887346986925860000003678737442178169002_);}
	.st7{fill:url(#SVGID_00000083087005467365107200000009038821716039555762_);}
	.st8{fill:url(#SVGID_00000012460414606977010480000006777433396490348717_);}
	.st9{fill:url(#SVGID_00000132803783842152550470000000466734838455780779_);}
	.st10{fill:url(#SVGID_00000075146701009886977160000005588308496116859029_);}
	.st11{fill:url(#SVGID_00000003813622137707040290000008150280267499460253_);}
	.st12{fill:url(#SVGID_00000136393425268299818750000009472784837276483968_);}
	.st13{fill:url(#SVGID_00000075151488281290043450000008724982660060525975_);}
	.st14{fill:url(#SVGID_00000108993229187798676840000016500614024131255727_);}
	.st15{fill:url(#SVGID_00000059995056321405958970000002464665338805696389_);}
	.st16{fill:url(#SVGID_00000036948598003570567710000000017048414514265278_);}
	.st17{fill:url(#SVGID_00000079457070148269877380000003807087760991260580_);}
	.st18{fill:url(#SVGID_00000057138536341056986410000000324822717631892136_);}
	.st19{fill:url(#SVGID_00000135675750057800308070000003107581796844167553_);}
	.st20{fill:url(#SVGID_00000120521511525340617600000011784692705283437499_);}
	.st21{fill:url(#SVGID_00000009557327368548932310000003292780573830814905_);}
	.st22{fill:url(#SVGID_00000114049736579115903580000014503402445883179935_);}
	.st23{fill:url(#SVGID_00000113349351552317130160000003105111637031933069_);}
	.st24{fill:url(#SVGID_00000134227205665091666100000013180997266220942500_);}
	.st25{fill:url(#SVGID_00000041276754635994407350000010892725020361135279_);}
	.st26{fill:url(#SVGID_00000089556941807129080340000005420997529384374963_);}
	.st27{fill:url(#SVGID_00000146474265432428102830000002955640378935379088_);}
	.st28{fill:url(#SVGID_00000033344188902080781540000007571517666187340219_);}
	.st29{fill:url(#SVGID_00000064337106285358905870000015302015979689868434_);}
	.st30{fill:url(#SVGID_00000112613313001020046930000010729557132192543142_);}
	.st31{fill:url(#SVGID_00000145037814943984278050000006580836749287859382_);}
	.st32{fill:url(#SVGID_00000040536380728012556210000017293270343208789931_);}
	.st33{fill:url(#SVGID_00000131325980484446176770000013417848795993604995_);}
	.st34{fill:url(#SVGID_00000008134883244298083430000001513254491717044653_);}
	.st35{fill:url(#SVGID_00000156583462741317120260000014633620898432908416_);}
	.st36{fill:url(#SVGID_00000029015274609930006840000008880871686589368477_);}
	.st37{fill:url(#SVGID_00000183945627161447693260000014038467429964369841_);}
	.st38{fill:url(#SVGID_00000133531491866497713280000005817435142762151593_);}
	.st39{fill:url(#SVGID_00000154422124082348267140000013248235871443755649_);}
	.st40{fill:url(#SVGID_00000113348830599859956090000016577470967349341333_);}
	.st41{fill:url(#SVGID_00000163042608173909631200000007456477970608217485_);}
	.st42{fill:url(#SVGID_00000047781223723265749070000017275499168006273928_);}
	.st43{fill:url(#SVGID_00000070093458984387885700000011966022798412970683_);}
	.st44{fill:url(#SVGID_00000080902068165093899410000003241321767042325901_);}
	.st45{fill:url(#SVGID_00000027588961232183604900000016492644146913357725_);}
	.st46{fill:url(#SVGID_00000107569941471713204260000007348978058018314670_);}
	.st47{fill:url(#SVGID_00000118379390200147276680000007361435340277480125_);}
	.st48{fill:url(#SVGID_00000098181480802382272500000003934277775236485787_);}
	.st49{fill:url(#SVGID_00000091017081155161408910000002767886910755318926_);}
	.st50{fill:url(#SVGID_00000152954983875791595380000005887974235671697586_);}
	.st51{fill:url(#SVGID_00000054264116173115021040000016689967726602111894_);}
	.st52{fill:url(#SVGID_00000102518364734673809430000001430515166367798424_);}
	.st53{fill:url(#SVGID_00000041264280909713324890000012047447710329081275_);}
	.st54{fill:url(#SVGID_00000048494036437598416260000007376979341479125651_);}
	.st55{fill:url(#SVGID_00000090278533474281341870000006336359458820478104_);}
	.st56{fill:url(#SVGID_00000109740037634318950630000006466258910223918005_);}
	.st57{fill:url(#SVGID_00000116919581582349309510000007095818867532619432_);}
	.st58{fill:url(#SVGID_00000078003932889179652870000015335018837617355435_);}
	.st59{fill:url(#SVGID_00000145022069214443372200000007480770202666805410_);}
	.st60{fill:url(#SVGID_00000034054737777295779770000008556398284831413918_);}
	.st61{fill:url(#SVGID_00000064329933907590214290000006116387004940073915_);}
	.st62{fill:url(#SVGID_00000158723739030987954220000000783652343204680633_);}
	.st63{fill:url(#SVGID_00000042003028302409977150000010323814588293491621_);}
	.st64{fill:url(#SVGID_00000027604565768747610810000005152480483569117623_);}
	.st65{fill:url(#SVGID_00000136392645733038910320000012021367337735676570_);}
	.st66{fill:url(#SVGID_00000124870312914372204900000014539848615988522152_);}
	.st67{fill:url(#SVGID_00000009564145762407170410000000911360634583091381_);}
	.st68{fill:url(#SVGID_00000016058141857771726900000010061172639184158084_);}
	.st69{fill:url(#SVGID_00000049915544665553904520000014727300193753620647_);}
	.st70{fill:url(#SVGID_00000105398632397247478100000003593870632694208649_);}
	.st71{fill:url(#SVGID_00000106128055392215416290000013122538004774606471_);}
	.st72{fill:url(#SVGID_00000068654731461856910480000008385744937485699759_);}
	.st73{fill:url(#SVGID_00000011736095186397042830000001599675216506623648_);}
	.st74{fill:url(#SVGID_00000082333388634987831780000003424252830605164962_);}
	.st75{fill:url(#SVGID_00000150062409192477755310000015453324280187088810_);}
	.st76{fill:url(#SVGID_00000126324586794349480680000017190219573619112344_);}
	.st77{fill:url(#SVGID_00000051385179303930720910000001874462280216034971_);}
	.st78{fill:url(#SVGID_00000152986727303564432900000004412812115736092855_);}
	.st79{fill:url(#SVGID_00000049189962121760181750000006632099826974266275_);}
	.st80{fill:url(#SVGID_00000164492786474726643940000011447526428261442968_);}
	.st81{fill:url(#SVGID_00000129194701569364544520000014120054770513701555_);}
	.st82{fill:url(#SVGID_00000000943295670838497250000004980500646745529217_);}
	.st83{fill:url(#SVGID_00000147189767323421993060000003076832769061242524_);}
	.st84{fill:url(#SVGID_00000116234495716603186090000007139681062162097059_);}
	.st85{fill:url(#SVGID_00000034803109954047565020000001067727241090680967_);}
	.st86{fill:url(#SVGID_00000045597744659832349240000001132950131188119205_);}
	.st87{fill:url(#SVGID_00000082367145113461742210000014569738628438540222_);}
</style>
<g>
	<g>
		<g>
			<linearGradient id="SVGID_1_" gradientUnits="userSpaceOnUse" x1="480.2775" y1="-11.1161" x2="480.2775" y2="318.9127">
				<stop  offset="0" style="stop-color:#3FA9F5"/>
				<stop  offset="0.9944" style="stop-color:#0A7BCC"/>
			</linearGradient>
			<path class="st1" d="M489.2,262.5c-2.4,1.6-5.2,2.4-8.2,2.4c-2.9,0-5.4-0.7-7.8-2.1c-2.3-1.4-4.1-3.3-5.4-5.6
				c-1.3-2.4-1.9-5-1.9-7.9c0-4.4,1.4-8.1,4.3-11.1c2.9-3,6.5-4.5,10.8-4.5c3.1,0,5.8,0.8,8.3,2.3c2.5,1.6,4.3,3.7,5.6,6.4h6.6
				c-1.3-4.6-3.8-8.2-7.4-11c-3.7-2.8-8-4.1-13-4.1c-6.2,0-11.5,2.1-15.6,6.3c-4.2,4.2-6.3,9.4-6.3,15.7c0,4.1,0.9,7.8,2.8,11.2
				c1.9,3.4,4.5,6,7.9,7.9c3.4,1.9,7.1,2.9,11.2,2.9c4.9,0,9.3-1.4,13-4.2c3.7-2.8,6.2-6.5,7.5-11.2h-6.7
				C493.5,258.7,491.6,260.9,489.2,262.5z"/>
			
				<linearGradient id="SVGID_00000175308627028676173970000009853560980702486171_" gradientUnits="userSpaceOnUse" x1="533.6481" y1="-11.0681" x2="533.6481" y2="318.8994">
				<stop  offset="0" style="stop-color:#3FA9F5"/>
				<stop  offset="0.9944" style="stop-color:#0A7BCC"/>
			</linearGradient>
			<path style="fill:url(#SVGID_00000175308627028676173970000009853560980702486171_);" d="M553.1,238c-1.9-3.3-4.6-6-8-7.9
				c-3.4-1.9-7.2-2.8-11.4-2.8c-6.4,0-11.7,2.1-16,6.2c-4.2,4.2-6.4,9.4-6.4,15.8c0,4.1,1,7.9,2.9,11.3c1.9,3.4,4.6,6,8,7.9
				c3.4,1.9,7.2,2.8,11.4,2.8c6.4,0,11.7-2.1,16-6.3c4.3-4.2,6.4-9.4,6.4-15.7C556,245.1,555,241.3,553.1,238z M544.8,260.4
				c-3,2.9-6.7,4.4-11.2,4.4c-4.5,0-8.2-1.5-11.1-4.4c-3-2.9-4.4-6.7-4.4-11.2c0-4.5,1.5-8.3,4.4-11.2c2.9-2.9,6.7-4.4,11.1-4.4
				c4.5,0,8.2,1.5,11.2,4.4c2.9,3,4.4,6.7,4.4,11.2C549.2,253.7,547.7,257.5,544.8,260.4z"/>
			
				<linearGradient id="SVGID_00000013913055334880733730000010074400512360407222_" gradientUnits="userSpaceOnUse" x1="587.9689" y1="-11.0681" x2="587.9689" y2="318.8994">
				<stop  offset="0" style="stop-color:#3FA9F5"/>
				<stop  offset="0.9944" style="stop-color:#0A7BCC"/>
			</linearGradient>
			<path style="fill:url(#SVGID_00000013913055334880733730000010074400512360407222_);" d="M609.3,249.4c0-6.2-2-11.5-5.9-15.7
				c-4-4.3-9.1-6.4-15.4-6.4c-6.1,0-11.2,2.1-15.3,6.3c-4.1,4.2-6.2,9.4-6.2,15.7c0,6.3,2.1,11.5,6.2,15.7c4.1,4.2,9.2,6.3,15.3,6.3
				c4.6,0,8.6-1.2,12.2-3.6c3.5-2.4,6.2-5.8,8-10.2h-6.9c-1.4,2.3-3.2,4.1-5.4,5.4c-2.3,1.3-4.8,1.9-7.8,1.9c-4,0-7.3-1.2-10-3.5
				c-2.7-2.4-4.3-5.5-4.8-9.4h35.9C609.3,250.8,609.3,250,609.3,249.4z M573.4,245.6c0.5-2.4,1.4-4.5,2.7-6.4
				c1.3-1.8,3.1-3.3,5.1-4.2c2-1,4.3-1.5,6.8-1.5c2.5,0,4.8,0.5,6.8,1.4c2,1,3.7,2.4,5.1,4.2c1.4,1.9,2.3,4,2.7,6.4H573.4z"/>
			
				<linearGradient id="SVGID_00000113318391013083414110000016961005697764096678_" gradientUnits="userSpaceOnUse" x1="640.3309" y1="-60.4634" x2="640.3309" y2="339.18">
				<stop  offset="0" style="stop-color:#3FA9F5"/>
				<stop  offset="0.9944" style="stop-color:#0A7BCC"/>
			</linearGradient>
			<path style="fill:url(#SVGID_00000113318391013083414110000016961005697764096678_);" d="M657.7,264.1v-35.9h-29.2
				c-0.8,9.9-1.4,17-2,21.3c-0.5,4.3-1.2,7.6-1.8,9.7c-0.7,2.1-1.6,3.7-2.9,4.9h-4.5v17.4h6.1v-11.1h33.9v11.1h6.1v-17.4H657.7z
				 M651.2,264.1h-22.3c1-1.2,1.8-2.8,2.4-4.9c0.6-2,1.2-5,1.7-8.9c0.5-3.9,1-9.3,1.4-16.3h16.8V264.1z"/>
			
				<linearGradient id="SVGID_00000026851775155063431250000003287934324432721301_" gradientUnits="userSpaceOnUse" x1="694.3397" y1="-5.678791e-02" x2="694.3397" y2="315.9531">
				<stop  offset="0" style="stop-color:#3FA9F5"/>
				<stop  offset="0.9944" style="stop-color:#0A7BCC"/>
			</linearGradient>
			<polygon style="fill:url(#SVGID_00000026851775155063431250000003287934324432721301_);" points="683.3,258 683.3,228.2 
				677,228.2 677,270.3 680.9,270.3 705.4,240.2 705.4,270.3 711.7,270.3 711.7,228.2 708,228.2 			"/>
			
				<linearGradient id="SVGID_00000029042795811110721060000002236788032042480813_" gradientUnits="userSpaceOnUse" x1="746.7022" y1="-5.678791e-02" x2="746.7022" y2="315.9531">
				<stop  offset="0" style="stop-color:#3FA9F5"/>
				<stop  offset="0.9944" style="stop-color:#0A7BCC"/>
			</linearGradient>
			<polygon style="fill:url(#SVGID_00000029042795811110721060000002236788032042480813_);" points="758,245.4 735.4,245.4 
				735.4,228.2 729,228.2 729,270.3 735.4,270.3 735.4,251.7 758,251.7 758,270.3 764.4,270.3 764.4,228.2 758,228.2 			"/>
			
				<linearGradient id="SVGID_00000004504068648682395630000017743097817260439199_" gradientUnits="userSpaceOnUse" x1="794.8982" y1="-7.479147e-02" x2="794.8982" y2="315.9576">
				<stop  offset="0" style="stop-color:#3FA9F5"/>
				<stop  offset="0.9944" style="stop-color:#0A7BCC"/>
			</linearGradient>
			<path style="fill:url(#SVGID_00000004504068648682395630000017743097817260439199_);" d="M792.7,228.2c-3.9,0-7.1,1.2-9.7,3.7
				c-2.5,2.5-3.8,5.6-3.8,9.3c0,2.9,0.8,5.3,2.4,7.5c1.6,2.1,3.8,3.6,6.6,4.5l-10.5,17.1h7.3l10-16.2h10.5v16.2h6.6v-42.1H792.7z
				 M805.5,247.8h-12.2c-2.2,0-3.9-0.6-5.3-1.8c-1.4-1.2-2-2.8-2-4.7c0-2,0.7-3.5,2-4.8c1.3-1.2,3.1-1.8,5.3-1.8h12.2V247.8z"/>
			
				<linearGradient id="SVGID_00000096750376302160085820000003450757599351971749_" gradientUnits="userSpaceOnUse" x1="842.4649" y1="-7.479147e-02" x2="842.4649" y2="315.9576">
				<stop  offset="0" style="stop-color:#3FA9F5"/>
				<stop  offset="0.9944" style="stop-color:#0A7BCC"/>
			</linearGradient>
			<path style="fill:url(#SVGID_00000096750376302160085820000003450757599351971749_);" d="M840.3,228.2c-3.9,0-7.1,1.2-9.7,3.7
				c-2.5,2.5-3.8,5.6-3.8,9.3c0,2.9,0.8,5.3,2.4,7.5c1.6,2.1,3.8,3.6,6.6,4.5l-10.5,17.1h7.3l10-16.2h10.5v16.2h6.5v-42.1H840.3z
				 M853.1,247.8h-12.2c-2.2,0-4-0.6-5.3-1.8c-1.3-1.2-2-2.8-2-4.7c0-2,0.7-3.5,2-4.8c1.3-1.2,3.1-1.8,5.3-1.8h12.2V247.8z"/>
			
				<linearGradient id="SVGID_00000124848685528660859910000007091227657081030829_" gradientUnits="userSpaceOnUse" x1="925.5599" y1="-5.678791e-02" x2="925.5599" y2="315.9531">
				<stop  offset="0" style="stop-color:#3FA9F5"/>
				<stop  offset="0.9944" style="stop-color:#0A7BCC"/>
			</linearGradient>
			<polygon style="fill:url(#SVGID_00000124848685528660859910000007091227657081030829_);" points="939.9,228.2 925.6,257.7 
				911.1,228.2 905.6,228.2 897.6,270.3 904,270.3 910,239 924.8,269.4 926.3,269.4 941.2,239 947.2,270.3 953.6,270.3 945.4,228.2 
							"/>
			
				<linearGradient id="SVGID_00000098926665448652143430000013204639057612135853_" gradientUnits="userSpaceOnUse" x1="984.5131" y1="-5.678791e-02" x2="984.5131" y2="315.9531">
				<stop  offset="0" style="stop-color:#3FA9F5"/>
				<stop  offset="0.9944" style="stop-color:#0A7BCC"/>
			</linearGradient>
			<polygon style="fill:url(#SVGID_00000098926665448652143430000013204639057612135853_);" points="973.5,258 973.5,228.2 
				967.2,228.2 967.2,270.3 971,270.3 995.6,240.2 995.6,270.3 1001.8,270.3 1001.8,228.2 998.2,228.2 			"/>
			
				<linearGradient id="SVGID_00000132071933270995613350000017353220487632933785_" gradientUnits="userSpaceOnUse" x1="1041.1324" y1="-87.589" x2="1041.1324" y2="348.3254">
				<stop  offset="0" style="stop-color:#3FA9F5"/>
				<stop  offset="0.9944" style="stop-color:#0A7BCC"/>
			</linearGradient>
			<path style="fill:url(#SVGID_00000132071933270995613350000017353220487632933785_);" d="M1057,233.5c-4.1-4.2-9.3-6.2-15.6-6.2
				c-3.3,0-6.4,0.6-9.2,1.9s-5.2,3.1-7.2,5.5l-1.3-6.5h-4.5v57.2h6.6v-20.7c4.1,4.4,9.3,6.6,15.7,6.6c6.3,0,11.5-2.1,15.6-6.3
				c4.1-4.2,6.1-9.4,6.1-15.7C1063.1,242.9,1061.1,237.6,1057,233.5z M1052,260.4c-2.9,3-6.6,4.5-11.1,4.5c-2.9,0-5.5-0.7-7.9-2
				c-2.4-1.4-4.2-3.2-5.6-5.6c-1.3-2.4-2-5-2-8c0-4.4,1.5-8.1,4.4-11.1c2.9-3,6.6-4.5,11.1-4.5c4.5,0,8.2,1.5,11.1,4.4
				c2.9,3,4.4,6.7,4.4,11.2C1056.4,253.7,1055,257.4,1052,260.4z"/>
			
				<linearGradient id="SVGID_00000046321792071062782180000016554702956640123010_" gradientUnits="userSpaceOnUse" x1="1120.0122" y1="-5.678791e-02" x2="1120.0122" y2="315.9531">
				<stop  offset="0" style="stop-color:#3FA9F5"/>
				<stop  offset="0.9944" style="stop-color:#0A7BCC"/>
			</linearGradient>
			
				<rect x="1116.7" y="228.2" style="fill:url(#SVGID_00000046321792071062782180000016554702956640123010_);" width="6.6" height="42.1"/>
			
				<linearGradient id="SVGID_00000159461190704861982780000010205583882705130893_" gradientUnits="userSpaceOnUse" x1="1093.0746" y1="-7.479147e-02" x2="1093.0746" y2="315.9576">
				<stop  offset="0" style="stop-color:#3FA9F5"/>
				<stop  offset="0.9944" style="stop-color:#0A7BCC"/>
			</linearGradient>
			<path style="fill:url(#SVGID_00000159461190704861982780000010205583882705130893_);" d="M1104.8,245.5c-2.8-2.7-6.4-4-10.8-4
				h-10.5v-13.3h-6.5v42.1h16.9c4.4,0,8-1.3,10.8-4c2.8-2.7,4.2-6.1,4.2-10.3C1109.1,251.6,1107.7,248.1,1104.8,245.5z M1099.8,262
				c-1.7,1.6-3.9,2.3-6.6,2.3h-9.6v-17h9.6c2.8,0,5,0.8,6.6,2.4c1.7,1.6,2.5,3.6,2.5,6.2C1102.3,258.4,1101.4,260.5,1099.8,262z"/>
			
				<linearGradient id="SVGID_00000036954790889951952640000010294065149308235959_" gradientUnits="userSpaceOnUse" x1="1177.9923" y1="-5.678791e-02" x2="1177.9923" y2="315.9531">
				<stop  offset="0" style="stop-color:#3FA9F5"/>
				<stop  offset="0.9944" style="stop-color:#0A7BCC"/>
			</linearGradient>
			<path style="fill:url(#SVGID_00000036954790889951952640000010294065149308235959_);" d="M1188.1,247.4c-3.1,1.5-6.2,2.3-9.5,2.3
				c-3.4,0-6.1-0.9-7.9-2.7c-1.8-1.8-2.8-4.4-2.8-7.8v-10.9h-6.5v11.4c0,5.2,1.5,9.3,4.6,12.1c3,2.9,7.1,4.3,12,4.3
				c3.5,0,6.8-0.6,10.1-1.9v16.2h6.4v-42.1h-6.4V247.4z"/>
			
				<linearGradient id="SVGID_00000172435024814389592850000006317452414725627804_" gradientUnits="userSpaceOnUse" x1="1229.7769" y1="-11.0681" x2="1229.7769" y2="318.8994">
				<stop  offset="0" style="stop-color:#3FA9F5"/>
				<stop  offset="0.9944" style="stop-color:#0A7BCC"/>
			</linearGradient>
			<path style="fill:url(#SVGID_00000172435024814389592850000006317452414725627804_);" d="M1251.1,249.4c0-6.2-2-11.5-5.9-15.7
				c-4-4.3-9.1-6.4-15.4-6.4c-6.1,0-11.2,2.1-15.3,6.3c-4.1,4.2-6.1,9.4-6.1,15.7c0,6.3,2,11.5,6.1,15.7c4.1,4.2,9.2,6.3,15.3,6.3
				c4.6,0,8.6-1.2,12.1-3.6c3.5-2.4,6.2-5.8,8-10.2h-6.9c-1.3,2.3-3.2,4.1-5.4,5.4c-2.3,1.3-4.9,1.9-7.8,1.9c-4,0-7.3-1.2-10-3.5
				c-2.7-2.4-4.3-5.5-4.8-9.4h35.9C1251.1,250.8,1251.1,250,1251.1,249.4z M1215.2,245.6c0.5-2.4,1.4-4.5,2.7-6.4
				c1.3-1.8,3.1-3.3,5.1-4.2c2-1,4.3-1.5,6.8-1.5c2.5,0,4.7,0.5,6.8,1.4c2,1,3.7,2.4,5.1,4.2c1.3,1.9,2.3,4,2.7,6.4H1215.2z"/>
			
				<linearGradient id="SVGID_00000145050564484840012190000009176913532961523591_" gradientUnits="userSpaceOnUse" x1="1286.9277" y1="-87.589" x2="1286.9277" y2="348.3254">
				<stop  offset="0" style="stop-color:#3FA9F5"/>
				<stop  offset="0.9944" style="stop-color:#0A7BCC"/>
			</linearGradient>
			<path style="fill:url(#SVGID_00000145050564484840012190000009176913532961523591_);" d="M1302.8,233.5
				c-4.1-4.2-9.3-6.2-15.6-6.2c-3.3,0-6.4,0.6-9.2,1.9s-5.2,3.1-7.2,5.5l-1.3-6.5h-4.5v57.2h6.6v-20.7c4.1,4.4,9.3,6.6,15.7,6.6
				c6.3,0,11.5-2.1,15.6-6.3c4.1-4.2,6.1-9.4,6.1-15.7C1308.9,242.9,1306.9,237.6,1302.8,233.5z M1297.8,260.4
				c-2.9,3-6.6,4.5-11.1,4.5c-2.9,0-5.5-0.7-8-2c-2.4-1.4-4.2-3.2-5.6-5.6c-1.3-2.4-2-5-2-8c0-4.4,1.5-8.1,4.4-11.1
				c2.9-3,6.6-4.5,11.1-4.5c4.5,0,8.2,1.5,11.1,4.4c2.9,3,4.4,6.7,4.4,11.2C1302.2,253.7,1300.8,257.4,1297.8,260.4z"/>
			
				<linearGradient id="SVGID_00000175294589656983779830000017196064568408306842_" gradientUnits="userSpaceOnUse" x1="1340.8988" y1="-11.0681" x2="1340.8988" y2="318.8994">
				<stop  offset="0" style="stop-color:#3FA9F5"/>
				<stop  offset="0.9944" style="stop-color:#0A7BCC"/>
			</linearGradient>
			<path style="fill:url(#SVGID_00000175294589656983779830000017196064568408306842_);" d="M1362.3,249.4c0-6.2-2-11.5-5.9-15.7
				c-3.9-4.3-9.1-6.4-15.4-6.4c-6.1,0-11.2,2.1-15.3,6.3c-4.1,4.2-6.2,9.4-6.2,15.7c0,6.3,2,11.5,6.2,15.7c4.1,4.2,9.2,6.3,15.3,6.3
				c4.6,0,8.6-1.2,12.2-3.6c3.5-2.4,6.2-5.8,8-10.2h-6.9c-1.4,2.3-3.2,4.1-5.4,5.4c-2.3,1.3-4.9,1.9-7.8,1.9c-4,0-7.3-1.2-10-3.5
				c-2.7-2.4-4.3-5.5-4.8-9.4h35.9C1362.2,250.8,1362.3,250,1362.3,249.4z M1326.3,245.6c0.5-2.4,1.4-4.5,2.7-6.4
				c1.3-1.8,3.1-3.3,5.1-4.2c2-1,4.3-1.5,6.8-1.5c2.5,0,4.8,0.5,6.8,1.4c2,1,3.7,2.4,5.1,4.2c1.3,1.9,2.3,4,2.7,6.4H1326.3z"/>
			
				<linearGradient id="SVGID_00000096051169787622715030000009797227999008505760_" gradientUnits="userSpaceOnUse" x1="1387.7277" y1="-11.1161" x2="1387.7277" y2="318.9127">
				<stop  offset="0" style="stop-color:#3FA9F5"/>
				<stop  offset="0.9944" style="stop-color:#0A7BCC"/>
			</linearGradient>
			<path style="fill:url(#SVGID_00000096051169787622715030000009797227999008505760_);" d="M1398,248.1c3.1-2,4.7-5,4.7-9.1
				c0-3.4-1.4-6.2-4.2-8.4c-2.8-2.2-6.4-3.3-10.7-3.3c-2.7,0-5.2,0.5-7.4,1.4c-2.2,1-4,2.3-5.3,4.1c-1.3,1.8-2.1,3.8-2.3,6.1h6
				c0.4-1.8,1.4-3.2,3-4.2c1.6-1,3.5-1.6,5.9-1.6c2.7,0,4.8,0.6,6.4,1.8c1.6,1.2,2.4,2.8,2.4,4.7c0,1.8-0.7,3.2-2,4.3
				c-1.3,1.1-3.1,1.7-5.3,1.7h-6.2v5.4h6.2c2.3,0,4.3,0.6,5.8,1.9c1.5,1.3,2.3,2.9,2.3,4.9c0,2.1-0.9,3.9-2.7,5.2
				c-1.8,1.3-4.1,1.9-6.9,1.9c-2.6,0-4.9-0.6-6.6-1.7c-1.8-1.1-2.9-2.7-3.3-4.6h-6c0.4,3.9,2,6.9,4.9,9.2c2.9,2.3,6.6,3.4,11,3.4
				c3.1,0,5.8-0.5,8.3-1.6c2.5-1.1,4.4-2.6,5.8-4.6c1.4-1.9,2.1-4.2,2.1-6.7C1403.8,253.6,1401.8,250.1,1398,248.1z"/>
			
				<linearGradient id="SVGID_00000144299472455734011170000002192676582700620457_" gradientUnits="userSpaceOnUse" x1="1455.8795" y1="-5.678791e-02" x2="1455.8795" y2="315.9531">
				<stop  offset="0" style="stop-color:#3FA9F5"/>
				<stop  offset="0.9944" style="stop-color:#0A7BCC"/>
			</linearGradient>
			<polygon style="fill:url(#SVGID_00000144299472455734011170000002192676582700620457_);" points="1437,234.2 1452.6,234.2 
				1452.6,270.3 1459.1,270.3 1459.1,234.2 1474.8,234.2 1474.8,228.2 1437,228.2 			"/>
			
				<linearGradient id="SVGID_00000129909329515101411120000013304160242209368743_" gradientUnits="userSpaceOnUse" x1="1503.3271" y1="-11.0681" x2="1503.3271" y2="318.8994">
				<stop  offset="0" style="stop-color:#3FA9F5"/>
				<stop  offset="0.9944" style="stop-color:#0A7BCC"/>
			</linearGradient>
			<path style="fill:url(#SVGID_00000129909329515101411120000013304160242209368743_);" d="M1524.7,249.4c0-6.2-2-11.5-5.9-15.7
				c-4-4.3-9.1-6.4-15.4-6.4c-6.1,0-11.2,2.1-15.3,6.3c-4.1,4.2-6.2,9.4-6.2,15.7c0,6.3,2.1,11.5,6.2,15.7c4.1,4.2,9.2,6.3,15.3,6.3
				c4.6,0,8.6-1.2,12.2-3.6c3.5-2.4,6.2-5.8,8-10.2h-6.9c-1.3,2.3-3.2,4.1-5.4,5.4c-2.3,1.3-4.8,1.9-7.8,1.9c-3.9,0-7.3-1.2-10-3.5
				c-2.7-2.4-4.3-5.5-4.8-9.4h35.9C1524.6,250.8,1524.7,250,1524.7,249.4z M1488.7,245.6c0.5-2.4,1.4-4.5,2.7-6.4
				c1.3-1.8,3.1-3.3,5.1-4.2c2.1-1,4.3-1.5,6.8-1.5c2.5,0,4.8,0.5,6.8,1.4c2,1,3.7,2.4,5.1,4.2c1.3,1.9,2.3,4,2.7,6.4H1488.7z"/>
			
				<linearGradient id="SVGID_00000165235763268596508850000013016165591784022700_" gradientUnits="userSpaceOnUse" x1="1550.5564" y1="-5.678791e-02" x2="1550.5564" y2="315.9531">
				<stop  offset="0" style="stop-color:#3FA9F5"/>
				<stop  offset="0.9944" style="stop-color:#0A7BCC"/>
			</linearGradient>
			<polygon style="fill:url(#SVGID_00000165235763268596508850000013016165591784022700_);" points="1568.8,228.2 1561.5,228.2 
				1550.5,243.8 1539.7,228.2 1532.3,228.2 1546.5,248.4 1531.1,270.3 1538.3,270.3 1550.5,252.7 1562.5,270.3 1570,270.3 
				1554.5,248.2 			"/>
			
				<linearGradient id="SVGID_00000008115813850891921550000013772741629514863493_" gradientUnits="userSpaceOnUse" x1="1598.8254" y1="-5.678791e-02" x2="1598.8254" y2="315.9531">
				<stop  offset="0" style="stop-color:#3FA9F5"/>
				<stop  offset="0.9944" style="stop-color:#0A7BCC"/>
			</linearGradient>
			<polygon style="fill:url(#SVGID_00000008115813850891921550000013772741629514863493_);" points="1610.1,245.4 1587.6,245.4 
				1587.6,228.2 1581.1,228.2 1581.1,270.3 1587.6,270.3 1587.6,251.7 1610.1,251.7 1610.1,270.3 1616.6,270.3 1616.6,228.2 
				1610.1,228.2 			"/>
			
				<linearGradient id="SVGID_00000001643399036498962070000002376196629646250639_" gradientUnits="userSpaceOnUse" x1="1652.87" y1="-11.0681" x2="1652.87" y2="318.8994">
				<stop  offset="0" style="stop-color:#3FA9F5"/>
				<stop  offset="0.9944" style="stop-color:#0A7BCC"/>
			</linearGradient>
			<path style="fill:url(#SVGID_00000001643399036498962070000002376196629646250639_);" d="M1672.3,238c-2-3.3-4.6-6-8-7.9
				c-3.4-1.9-7.2-2.8-11.4-2.8c-6.4,0-11.7,2.1-15.9,6.2c-4.2,4.2-6.4,9.4-6.4,15.8c0,4.1,1,7.9,2.9,11.3c1.9,3.4,4.6,6,8,7.9
				c3.4,1.9,7.2,2.8,11.4,2.8c6.4,0,11.7-2.1,16-6.3c4.3-4.2,6.4-9.4,6.4-15.7C1675.2,245.1,1674.2,241.3,1672.3,238z M1664,260.4
				c-3,2.9-6.7,4.4-11.2,4.4s-8.2-1.5-11.2-4.4c-2.9-2.9-4.4-6.7-4.4-11.2c0-4.5,1.5-8.3,4.4-11.2c3-2.9,6.7-4.4,11.2-4.4
				s8.2,1.5,11.2,4.4c2.9,3,4.4,6.7,4.4,11.2C1668.4,253.7,1667,257.5,1664,260.4z"/>
			
				<linearGradient id="SVGID_00000062878930203445611330000002188188868002787513_" gradientUnits="userSpaceOnUse" x1="1702.7787" y1="-1.3225" x2="1702.7787" y2="316.4398">
				<stop  offset="0" style="stop-color:#3FA9F5"/>
				<stop  offset="0.9944" style="stop-color:#0A7BCC"/>
			</linearGradient>
			<path style="fill:url(#SVGID_00000062878930203445611330000002188188868002787513_);" d="M1692,255.6c-0.3,3-1.1,5.2-2.3,6.6
				c-1.2,1.4-3.1,2.1-5.5,2.1h-1.5v6.2h1.2c4.6,0,8-1.2,10.3-3.5c2.3-2.3,3.7-6.3,4.3-11.8l2.2-21.3h15.4v36.3h6.6v-42.1h-27.6
				L1692,255.6z"/>
			
				<linearGradient id="SVGID_00000056411070330756636930000011219032935970566291_" gradientUnits="userSpaceOnUse" x1="1759.006" y1="-11.0681" x2="1759.006" y2="318.8994">
				<stop  offset="0" style="stop-color:#3FA9F5"/>
				<stop  offset="0.9944" style="stop-color:#0A7BCC"/>
			</linearGradient>
			<path style="fill:url(#SVGID_00000056411070330756636930000011219032935970566291_);" d="M1778.4,238c-1.9-3.3-4.6-6-8-7.9
				c-3.4-1.9-7.2-2.8-11.4-2.8c-6.4,0-11.7,2.1-16,6.2c-4.2,4.2-6.3,9.4-6.3,15.8c0,4.1,1,7.9,2.9,11.3c1.9,3.4,4.6,6,8,7.9
				c3.4,1.9,7.2,2.8,11.4,2.8c6.4,0,11.7-2.1,16-6.3c4.3-4.2,6.4-9.4,6.4-15.7C1781.3,245.1,1780.4,241.3,1778.4,238z M1770.2,260.4
				c-2.9,2.9-6.7,4.4-11.1,4.4c-4.5,0-8.2-1.5-11.2-4.4c-2.9-2.9-4.4-6.7-4.4-11.2c0-4.5,1.5-8.3,4.4-11.2c2.9-2.9,6.7-4.4,11.2-4.4
				c4.5,0,8.2,1.5,11.1,4.4c2.9,3,4.4,6.7,4.4,11.2C1774.6,253.7,1773.1,257.5,1770.2,260.4z"/>
			
				<linearGradient id="SVGID_00000170999898313966153550000009493619862726601605_" gradientUnits="userSpaceOnUse" x1="1808.4052" y1="-5.678791e-02" x2="1808.4052" y2="315.9531">
				<stop  offset="0" style="stop-color:#3FA9F5"/>
				<stop  offset="0.9944" style="stop-color:#0A7BCC"/>
			</linearGradient>
			<polygon style="fill:url(#SVGID_00000170999898313966153550000009493619862726601605_);" points="1795.3,270.3 1801.8,270.3 
				1801.8,234.1 1821.5,234.1 1821.5,228.2 1795.3,228.2 			"/>
			
				<linearGradient id="SVGID_00000166637934908821738300000013984743480127206333_" gradientUnits="userSpaceOnUse" x1="1850.7521" y1="-5.678791e-02" x2="1850.7521" y2="315.9531">
				<stop  offset="0" style="stop-color:#3FA9F5"/>
				<stop  offset="0.9944" style="stop-color:#0A7BCC"/>
			</linearGradient>
			<polygon style="fill:url(#SVGID_00000166637934908821738300000013984743480127206333_);" points="1839.8,258 1839.8,228.2 
				1833.4,228.2 1833.4,270.3 1837.3,270.3 1861.8,240.2 1861.8,270.3 1868.1,270.3 1868.1,228.2 1864.4,228.2 			"/>
			
				<linearGradient id="SVGID_00000010276048513355355630000001775702690507376008_" gradientUnits="userSpaceOnUse" x1="1902.6863" y1="-5.678791e-02" x2="1902.6863" y2="315.9531">
				<stop  offset="0" style="stop-color:#3FA9F5"/>
				<stop  offset="0.9944" style="stop-color:#0A7BCC"/>
			</linearGradient>
			<polygon style="fill:url(#SVGID_00000010276048513355355630000001775702690507376008_);" points="1916.3,228.2 1891.7,258 
				1891.7,228.2 1885.4,228.2 1885.4,270.3 1889.2,270.3 1913.8,240.2 1913.8,270.3 1920,270.3 1920,228.2 			"/>
		</g>
		
			<linearGradient id="SVGID_00000108296653836732139450000009424593763904094864_" gradientUnits="userSpaceOnUse" x1="556.8182" y1="16.4842" x2="486.9661" y2="144.5464">
			<stop  offset="0" style="stop-color:#3FA9F5"/>
			<stop  offset="0.9944" style="stop-color:#0A7BCC"/>
		</linearGradient>
		<polygon style="fill:url(#SVGID_00000108296653836732139450000009424593763904094864_);" points="488.1,30.8 459.1,59.9 
			459.1,70.8 519.5,70.8 519.5,138.3 564.5,138.3 564.5,59.9 535.4,30.8 		"/>
		
			<linearGradient id="SVGID_00000100352737268614002620000009579500629785214380_" gradientUnits="userSpaceOnUse" x1="511.7585" y1="53.0691" x2="511.7585" y2="320.2151">
			<stop  offset="0" style="stop-color:#333333"/>
			<stop  offset="0.9944" style="stop-color:#000000"/>
		</linearGradient>
		<polygon style="fill:url(#SVGID_00000100352737268614002620000009579500629785214380_);" points="504,82.3 459.1,82.3 
			459.1,160.7 488.1,189.8 535.4,189.8 564.5,160.7 564.5,149.8 504,149.8 		"/>
		
			<linearGradient id="SVGID_00000178922940867440401670000006173982491124678025_" gradientUnits="userSpaceOnUse" x1="629.6398" y1="-12.3658" x2="629.6398" y2="382.631">
			<stop  offset="0" style="stop-color:#333333"/>
			<stop  offset="0.9944" style="stop-color:#000000"/>
		</linearGradient>
		<path style="fill:url(#SVGID_00000178922940867440401670000006173982491124678025_);" d="M662.1,76.7h-40V63.5h53.2V30.8h-70
			l-27.3,27.3v104.5l27.3,27.3h48.6l27.3-27.3V95.8L662.1,76.7z M637.1,153.5h-15v-45.9h15V153.5z"/>
		
			<linearGradient id="SVGID_00000118371773083472841960000002711159641993256070_" gradientUnits="userSpaceOnUse" x1="745.7093" y1="28.0571" x2="745.7093" y2="344.0676">
			<stop  offset="0" style="stop-color:#333333"/>
			<stop  offset="0.9944" style="stop-color:#000000"/>
		</linearGradient>
		<polygon style="fill:url(#SVGID_00000118371773083472841960000002711159641993256070_);" points="701,151.6 691.4,151.6 
			691.4,189.8 738.2,189.8 746.8,97.1 755.9,97.1 755.9,189.8 800,189.8 800,62.6 709.8,62.6 		"/>
		
			<linearGradient id="SVGID_00000089556563649264346560000015567481892887166140_" gradientUnits="userSpaceOnUse" x1="860.8771" y1="28.0533" x2="860.8771" y2="344.0754">
			<stop  offset="0" style="stop-color:#333333"/>
			<stop  offset="0.9944" style="stop-color:#000000"/>
		</linearGradient>
		<path style="fill:url(#SVGID_00000089556563649264346560000015567481892887166140_);" d="M880.4,62.6h-65.9v36.3h52.7v16.3h-55
			v49.1l25.4,25.4h71.8V91.7L880.4,62.6z M867.2,155.3h-12.7v-18.4h12.7V155.3z"/>
		
			<linearGradient id="SVGID_00000013195199001961342490000007672835467006307243_" gradientUnits="userSpaceOnUse" x1="973.523" y1="28.0571" x2="973.523" y2="344.0676">
			<stop  offset="0" style="stop-color:#333333"/>
			<stop  offset="0.9944" style="stop-color:#000000"/>
		</linearGradient>
		<polygon style="fill:url(#SVGID_00000013195199001961342490000007672835467006307243_);" points="981,125.3 966,125.3 966,62.6 
			922,62.6 922,132.6 951,161.6 981,161.6 981,189.8 1025.1,189.8 1025.1,62.6 981,62.6 		"/>
		
			<linearGradient id="SVGID_00000139261897202029171280000018277231876286401938_" gradientUnits="userSpaceOnUse" x1="1091.1854" y1="28.0571" x2="1091.1854" y2="344.0676">
			<stop  offset="0" style="stop-color:#333333"/>
			<stop  offset="0.9944" style="stop-color:#000000"/>
		</linearGradient>
		<polygon style="fill:url(#SVGID_00000139261897202029171280000018277231876286401938_);" points="1098.7,106.4 1083.7,106.4 
			1083.7,62.6 1039.6,62.6 1039.6,189.8 1083.7,189.8 1083.7,144.4 1098.7,144.4 1098.7,189.8 1142.7,189.8 1142.7,62.6 
			1098.7,62.6 		"/>
		
			<linearGradient id="SVGID_00000008110407439356681300000004167888153335139738_" gradientUnits="userSpaceOnUse" x1="1296.7439" y1="28.0571" x2="1296.7439" y2="344.0676">
			<stop  offset="0" style="stop-color:#333333"/>
			<stop  offset="0.9944" style="stop-color:#000000"/>
		</linearGradient>
		
			<rect x="1274.7" y="62.6" style="fill:url(#SVGID_00000008110407439356681300000004167888153335139738_);" width="44.1" height="127.2"/>
		
			<linearGradient id="SVGID_00000013173654210992531460000009471109223434190741_" gradientUnits="userSpaceOnUse" x1="1208.8396" y1="28.0533" x2="1208.8396" y2="344.0754">
			<stop  offset="0" style="stop-color:#333333"/>
			<stop  offset="0.9944" style="stop-color:#000000"/>
		</linearGradient>
		<path style="fill:url(#SVGID_00000013173654210992531460000009471109223434190741_);" d="M1235,90.8h-33.6V62.6h-44.1v127.2h77.7
			l25.4-25.4v-48.2L1235,90.8z M1216.3,157.1h-15v-33.6h15V157.1z"/>
		
			<linearGradient id="SVGID_00000137853217545622950530000010963730996402173605_" gradientUnits="userSpaceOnUse" x1="1385.0985" y1="28.0571" x2="1385.0985" y2="344.0676">
			<stop  offset="0" style="stop-color:#333333"/>
			<stop  offset="0.9944" style="stop-color:#000000"/>
		</linearGradient>
		<polygon style="fill:url(#SVGID_00000137853217545622950530000010963730996402173605_);" points="1373.5,130.3 1373.5,62.6 
			1333.3,62.6 1333.3,189.8 1368.3,189.8 1396.7,122.1 1396.7,189.8 1436.9,189.8 1436.9,62.6 1401.9,62.6 		"/>
		
			<linearGradient id="SVGID_00000139997935468599244200000003883998391339680416_" gradientUnits="userSpaceOnUse" x1="1545.2288" y1="28.0571" x2="1545.2288" y2="344.0676">
			<stop  offset="0" style="stop-color:#333333"/>
			<stop  offset="0.9944" style="stop-color:#000000"/>
		</linearGradient>
		<polygon style="fill:url(#SVGID_00000139997935468599244200000003883998391339680416_);" points="1545.2,110.5 1532,62.6 
			1486.4,62.6 1486.4,189.8 1524.8,189.8 1524.8,116.2 1537.5,165.7 1552.9,165.7 1565.7,116.2 1565.7,189.8 1604.1,189.8 
			1604.1,62.6 1558.4,62.6 		"/>
		
			<linearGradient id="SVGID_00000050648103691738704800000007149473481619851436_" gradientUnits="userSpaceOnUse" x1="1669.9215" y1="67.2039" x2="1669.9215" y2="190.2334">
			<stop  offset="0" style="stop-color:#333333"/>
			<stop  offset="0.9944" style="stop-color:#000000"/>
		</linearGradient>
		<polygon style="fill:url(#SVGID_00000050648103691738704800000007149473481619851436_);" points="1662.4,155.3 1662.4,107 
			1618.4,107 1618.4,162.5 1645.6,189.8 1694.2,189.8 1721.5,162.5 1721.5,155.3 		"/>
		
			<linearGradient id="SVGID_00000120540677399829500300000017111357326452286379_" gradientUnits="userSpaceOnUse" x1="1669.9215" y1="57.9588" x2="1669.9215" y2="144.8575">
			<stop  offset="0" style="stop-color:#3FA9F5"/>
			<stop  offset="0.9944" style="stop-color:#0A7BCC"/>
		</linearGradient>
		<polygon style="fill:url(#SVGID_00000120540677399829500300000017111357326452286379_);" points="1694.2,62.6 1645.6,62.6 
			1618.4,89.8 1618.4,97.1 1677.4,97.1 1677.4,145.4 1721.5,145.4 1721.5,89.8 		"/>
		
			<linearGradient id="SVGID_00000144303901010629389090000006857081318584694925_" gradientUnits="userSpaceOnUse" x1="1775.7662" y1="28.0571" x2="1775.7662" y2="344.0676">
			<stop  offset="0" style="stop-color:#333333"/>
			<stop  offset="0.9944" style="stop-color:#000000"/>
		</linearGradient>
		<polygon style="fill:url(#SVGID_00000144303901010629389090000006857081318584694925_);" points="1735.6,90.3 1735.6,162.1 
			1763.3,189.8 1816,189.8 1816,149.8 1779.6,149.8 1779.6,102.6 1816,102.6 1816,62.6 1763.3,62.6 		"/>
		
			<linearGradient id="SVGID_00000181074248652832847800000004106582946285584014_" gradientUnits="userSpaceOnUse" x1="1871.8474" y1="28.0571" x2="1871.8474" y2="344.0676">
			<stop  offset="0" style="stop-color:#333333"/>
			<stop  offset="0.9944" style="stop-color:#000000"/>
		</linearGradient>
		<polygon style="fill:url(#SVGID_00000181074248652832847800000004106582946285584014_);" points="1823.7,62.6 1823.7,100.8 
			1849.8,100.8 1849.8,189.8 1893.9,189.8 1893.9,100.8 1920,100.8 1920,62.6 		"/>
		
			<linearGradient id="SVGID_00000017489655248163507530000004523327766704699548_" gradientUnits="userSpaceOnUse" x1="1422.3544" y1="16.04" x2="1357.2961" y2="55.7598">
			<stop  offset="0" style="stop-color:#3FA9F5"/>
			<stop  offset="0.9944" style="stop-color:#0A7BCC"/>
		</linearGradient>
		
			<rect x="1360.3" y="29" style="fill:url(#SVGID_00000017489655248163507530000004523327766704699548_);" width="49.7" height="19.6"/>
	</g>
	<g>
		<g>
			
				<linearGradient id="SVGID_00000122700828918458837310000011013514299143472826_" gradientUnits="userSpaceOnUse" x1="164.9404" y1="14.8742" x2="164.9404" y2="301.1196">
				<stop  offset="0" style="stop-color:#3FA9F5"/>
				<stop  offset="0.9944" style="stop-color:#0A7BCC"/>
			</linearGradient>
			<path style="fill:url(#SVGID_00000122700828918458837310000011013514299143472826_);" d="M314.1,52.1l-4.9-9.7l0,0L287.5,0
				l-29.4,17l-3,1.7L274,32.1c-5.3,22.9-12.2,45.5-20.8,67.2C203,225.2,102.2,303.3,14.6,222.7c-1.7-1.6-3.2-3.2-4.8-4.9
				c16.6,37.8,51.9,62.8,93.8,72.7c0,0,0,0,0,0c37.1,10.2,95.8,2.5,120.1-8.5c-2.6,0.4-24.3,3.8-52.5,1.4c-4.9-0.4-10-1-15.3-1.8
				c72.2-28.9,129-137.8,145.5-230.7L320,63.8L314.1,52.1z"/>
			
				<linearGradient id="SVGID_00000001661772263372096910000009032052005045841807_" gradientUnits="userSpaceOnUse" x1="132.2986" y1="14.8742" x2="132.2986" y2="301.1196">
				<stop  offset="0" style="stop-color:#3FA9F5"/>
				<stop  offset="0.9944" style="stop-color:#0A7BCC"/>
			</linearGradient>
			<path style="fill:url(#SVGID_00000001661772263372096910000009032052005045841807_);" d="M155.1,202.5
				c33.1-25.9,63.4-67.9,85.9-123.3l10.6-30.1c-5.1,90.9-107.6,225-205.7,180.8c-31.8-14.3-49.9-48.1-45-82.6
				C9.5,86.2,60.5,41,127.1,39.6c6.5,0,9.8-1.1,13.8-4.7c8.8-6.6,56.6-31.3,107-20.3c-2.1,3.6-1,8.5,2.4,10.9l14.3,10.2
				c-0.5,2.1-1,4.1-1.5,6.2c-36.4-4.7-73.6,2.7-105,21.8c-9,6.8-22.2,9.8-30.8,9.2C101,73.1,80,81.7,64.6,95.2
				C-3.4,154.9,83.8,258.3,155.1,202.5z"/>
		</g>
		<g>
			
				<linearGradient id="SVGID_00000166675000247375646620000007629122006945675916_" gradientUnits="userSpaceOnUse" x1="278.5128" y1="68.3881" x2="278.5128" y2="312.2976">
				<stop  offset="0" style="stop-color:#333333"/>
				<stop  offset="0.9944" style="stop-color:#000000"/>
			</linearGradient>
			<path style="fill:url(#SVGID_00000166675000247375646620000007629122006945675916_);" d="M390.9,131.1
				c-11.6-26.9-35.5-48-66.6-60.2h0c-5.2-2.1-10.7-3.9-16.3-5.4c-0.3-0.1-0.6-0.2-1-0.3c-0.4,1.6-0.7,3.1-1.1,4.6
				c-0.2,0.9-0.4,1.8-0.6,2.7c12.9,8.5,28.1,21.7,40.2,41.6c6.1,10.1,10.3,20.2,13.2,29.5h-33.2v14.6h56.7V173h-18.5
				c0,0.7,0,1.3,0,2c-1.3,34.6-30.4,61.6-65,61.6h-50.6v14.6h56.7v14.6h-46.6c-14.4,23.4-40.4,37.3-75.4,40.3
				c-9,0.8-17.5,0.7-24.9,0.3c46.7,17,95.7,6.2,132.4-30.7c4.2-4.1,7.4-5.5,13.1-5.7c59.2-1.2,87.1-50.6,93.6-76.5
				C397.5,191.8,404,161.7,390.9,131.1z"/>
			
				<linearGradient id="SVGID_00000169522382482122823030000004672512404769315259_" gradientUnits="userSpaceOnUse" x1="309.3987" y1="68.3881" x2="309.3987" y2="312.2976">
				<stop  offset="0" style="stop-color:#333333"/>
				<stop  offset="0.9944" style="stop-color:#000000"/>
			</linearGradient>
			
				<rect x="284.3" y="189.8" style="fill:url(#SVGID_00000169522382482122823030000004672512404769315259_);" width="50.2" height="14.8"/>
		</g>
	</g>
</g>
</svg>
